<svg viewBox="0 0 808.8 199" xmlns="http://www.w3.org/2000/svg" xmlns:xlink="http://www.w3.org/1999/xlink" id="Capa_1" xml:space="preserve" overflow="hidden"><g><g><path d="M469.9 49.9C469.9 48.5 470.2 47.3 470.7 46.1 471.2 44.9 471.9 43.9 472.8 43 473.7 42.1 474.8 41.4 476 40.9 477.2 40.4 478.6 40.2 480.1 40.2 481.6 40.2 483 40.4 484.2 40.9 485.5 41.4 486.5 42.1 487.4 43 488.3 43.9 489 44.9 489.5 46.1 490 47.3 490.3 48.6 490.3 49.9 490.3 51.3 490 52.5 489.5 53.7 489 54.9 488.3 55.9 487.4 56.8 486.5 57.7 485.4 58.4 484.2 58.9 482.9 59.4 481.6 59.6 480.1 59.6 478.6 59.6 477.2 59.4 476 58.9 474.8 58.4 473.7 57.7 472.8 56.8 471.9 55.9 471.2 54.9 470.7 53.7 470.2 52.5 469.9 51.2 469.9 49.9M475 49.9C475 50.6 475.1 51.3 475.4 51.9 475.7 52.5 476.1 53.1 476.5 53.5 477 54 477.5 54.3 478.1 54.6 478.7 54.9 479.4 55 480.1 55 480.8 55 481.5 54.9 482.1 54.6 482.7 54.3 483.3 54 483.8 53.5 484.3 53 484.7 52.5 484.9 51.9 485.2 51.3 485.3 50.6 485.3 49.9 485.3 49.2 485.2 48.5 484.9 47.9 484.6 47.3 484.2 46.7 483.8 46.3 483.3 45.8 482.8 45.5 482.1 45.2 481.5 44.9 480.8 44.8 480.1 44.8 479.4 44.8 478.7 44.9 478.1 45.2 477.5 45.5 476.9 45.8 476.5 46.3 476 46.8 475.7 47.3 475.4 47.9 475.1 48.5 475 49.1 475 49.9" fill="#0A171F"/><path d="M493.4 40.7 500.5 40.7C502.2 40.7 503.5 41.1 504.4 41.9 505.3 42.7 505.7 43.9 505.7 45.4 505.7 46.3 505.5 47.1 505.2 47.7 504.9 48.3 504.4 48.8 503.7 49.3 504.4 49.4 505 49.6 505.4 49.9 505.9 50.2 506.3 50.5 506.6 50.9 506.9 51.3 507.1 51.7 507.2 52.2 507.3 52.7 507.4 53.2 507.4 53.8 507.4 54.7 507.2 55.4 506.9 56.1 506.6 56.8 506.2 57.3 505.6 57.8 505.1 58.3 504.4 58.6 503.6 58.8 502.8 59 501.9 59.1 501 59.1L493.3 59.1 493.3 40.7ZM498.2 47.9 499.1 47.9C500.6 47.9 501.3 47.3 501.3 46.1 501.3 44.9 500.6 44.3 499.1 44.3L498.2 44.3 498.2 47.9ZM498.2 55.4 499.3 55.4C500.5 55.4 501.4 55.2 501.9 54.9 502.4 54.6 502.7 54.1 502.7 53.4 502.7 52.7 502.4 52.2 501.9 51.9 501.4 51.6 500.5 51.4 499.3 51.4L498.2 51.4 498.2 55.4Z" fill="#0A171F"/><path d="M520.4 45.4C519.9 45 519.4 44.7 518.8 44.5 518.3 44.3 517.8 44.2 517.3 44.2 516.7 44.2 516.2 44.3 515.8 44.6 515.4 44.9 515.2 45.3 515.2 45.7 515.2 46 515.3 46.3 515.5 46.5 515.7 46.7 516 46.9 516.3 47 516.6 47.2 517 47.3 517.4 47.4 517.8 47.5 518.2 47.6 518.6 47.8 520.2 48.3 521.3 49 522 49.9 522.7 50.8 523.1 51.9 523.1 53.3 523.1 54.2 522.9 55.1 522.6 55.9 522.3 56.7 521.8 57.3 521.2 57.9 520.6 58.4 519.8 58.9 519 59.2 518.1 59.5 517.1 59.7 516 59.7 513.7 59.7 511.5 59 509.5 57.6L511.6 53.7C512.3 54.3 513 54.8 513.7 55.1 514.4 55.4 515.1 55.6 515.8 55.6 516.6 55.6 517.2 55.4 517.5 55.1 517.9 54.7 518.1 54.3 518.1 53.9 518.1 53.6 518.1 53.4 518 53.2 517.9 53 517.7 52.8 517.5 52.6 517.3 52.4 517 52.3 516.6 52.1 516.2 52 515.8 51.8 515.3 51.6 514.7 51.4 514.1 51.2 513.5 51 512.9 50.8 512.4 50.5 511.9 50.1 511.4 49.7 511.1 49.2 510.8 48.6 510.5 48 510.4 47.3 510.4 46.3 510.4 45.4 510.5 44.6 510.9 43.8 511.2 43.1 511.6 42.4 512.2 41.9 512.7 41.4 513.4 41 514.2 40.7 515 40.4 515.9 40.3 516.9 40.3 517.8 40.3 518.8 40.4 519.8 40.7 520.8 41 521.7 41.3 522.7 41.8L520.4 45.4Z" fill="#0A171F"/><path d="M536.6 44.7 530.9 44.7 530.9 47.8 536.3 47.8 536.3 51.9 530.9 51.9 530.9 55 536.6 55 536.6 59.1 526.1 59.1 526.1 40.7 536.6 40.7Z" fill="#0A171F"/><path d="M555.4 59.1 549.4 59.1 544.8 52 544.8 59.1 540 59.1 540 40.7 547.5 40.7C548.5 40.7 549.4 40.9 550.2 41.2 551 41.5 551.6 41.9 552.1 42.4 552.6 42.9 553 43.5 553.2 44.2 553.5 44.9 553.6 45.6 553.6 46.4 553.6 47.8 553.3 48.9 552.6 49.8 551.9 50.7 550.9 51.3 549.6 51.6L555.4 59.1ZM544.8 48.9 545.7 48.9C546.6 48.9 547.4 48.7 547.9 48.3 548.4 47.9 548.7 47.3 548.7 46.6 548.7 45.9 548.4 45.3 547.9 44.9 547.4 44.5 546.7 44.3 545.7 44.3L544.8 44.3 544.8 48.9Z" fill="#0A171F"/><path d="M559.9 40.7 564.4 51.9 568.9 40.7 574.1 40.7 566.3 59.1 562.5 59.1 554.7 40.7Z" fill="#0A171F"/><path d="M585.8 55.9 579 55.9 577.9 59.1 572.8 59.1 579.8 40.7 585 40.7 592 59.1 586.9 59.1 585.8 55.9ZM584.6 52.2 582.4 46.1 580.2 52.2 584.6 52.2Z" fill="#0A171F"/><path d="M600.3 44.7 600.3 59.1 595.5 59.1 595.5 44.7 591.6 44.7 591.6 40.7 604.3 40.7 604.3 44.7Z" fill="#0A171F"/><path d="M605.4 49.9C605.4 48.5 605.7 47.3 606.2 46.1 606.7 44.9 607.4 43.9 608.3 43 609.2 42.1 610.3 41.4 611.5 40.9 612.7 40.4 614.1 40.2 615.6 40.2 617.1 40.2 618.5 40.4 619.7 40.9 621 41.4 622 42.1 622.9 43 623.8 43.9 624.5 44.9 625 46.1 625.5 47.3 625.8 48.6 625.8 49.9 625.8 51.3 625.5 52.5 625 53.7 624.5 54.9 623.8 55.9 622.9 56.8 622 57.7 620.9 58.4 619.7 58.9 618.4 59.4 617.1 59.6 615.6 59.6 614.1 59.6 612.7 59.4 611.5 58.9 610.3 58.4 609.2 57.7 608.3 56.8 607.4 55.9 606.7 54.9 606.2 53.7 605.6 52.5 605.4 51.2 605.4 49.9M610.4 49.9C610.4 50.6 610.5 51.3 610.8 51.9 611.1 52.5 611.5 53.1 611.9 53.5 612.4 54 612.9 54.3 613.5 54.6 614.1 54.9 614.8 55 615.5 55 616.2 55 616.9 54.9 617.5 54.6 618.1 54.3 618.7 54 619.2 53.5 619.7 53 620.1 52.5 620.3 51.9 620.6 51.3 620.7 50.6 620.7 49.9 620.7 49.2 620.6 48.5 620.3 47.9 620 47.3 619.6 46.7 619.2 46.3 618.7 45.8 618.2 45.5 617.5 45.2 616.9 44.9 616.2 44.8 615.5 44.8 614.8 44.8 614.1 44.9 613.5 45.2 612.9 45.5 612.3 45.8 611.9 46.3 611.4 46.8 611.1 47.3 610.8 47.9 610.5 48.5 610.4 49.1 610.4 49.9" fill="#0A171F"/><path d="M644.2 59.1 638.2 59.1 633.6 52 633.6 59.1 628.8 59.1 628.8 40.7 636.3 40.7C637.3 40.7 638.2 40.9 639 41.2 639.8 41.5 640.4 41.9 640.9 42.4 641.4 42.9 641.8 43.5 642 44.2 642.3 44.9 642.4 45.6 642.4 46.4 642.4 47.8 642.1 48.9 641.4 49.8 640.7 50.7 639.7 51.3 638.4 51.6L644.2 59.1ZM633.6 48.9 634.5 48.9C635.4 48.9 636.2 48.7 636.7 48.3 637.2 47.9 637.5 47.3 637.5 46.6 637.5 45.9 637.2 45.3 636.7 44.9 636.2 44.5 635.5 44.3 634.5 44.3L633.6 44.3 633.6 48.9Z" fill="#0A171F"/><rect x="646.2" y="40.7" width="4.8" height="18.4" fill="#0A171F"/><path d="M654 49.9C654 48.5 654.3 47.3 654.8 46.1 655.3 44.9 656 43.9 656.9 43 657.8 42.1 658.9 41.4 660.1 40.9 661.3 40.4 662.7 40.2 664.2 40.2 665.7 40.2 667.1 40.4 668.3 40.9 669.6 41.4 670.6 42.1 671.5 43 672.4 43.9 673.1 44.9 673.6 46.1 674.1 47.3 674.4 48.6 674.4 49.9 674.4 51.3 674.1 52.5 673.6 53.7 673.1 54.9 672.4 55.9 671.5 56.8 670.6 57.7 669.5 58.4 668.3 58.9 667 59.4 665.7 59.6 664.2 59.6 662.7 59.6 661.3 59.4 660.1 58.9 658.9 58.4 657.8 57.7 656.9 56.8 656 55.9 655.3 54.9 654.8 53.7 654.2 52.5 654 51.2 654 49.9M659 49.9C659 50.6 659.1 51.3 659.4 51.9 659.7 52.5 660.1 53.1 660.5 53.5 661 54 661.5 54.3 662.1 54.6 662.7 54.9 663.4 55 664.1 55 664.8 55 665.5 54.9 666.1 54.6 666.7 54.3 667.3 54 667.8 53.5 668.3 53 668.7 52.5 668.9 51.9 669.2 51.3 669.3 50.6 669.3 49.9 669.3 49.2 669.2 48.5 668.9 47.9 668.6 47.3 668.2 46.7 667.8 46.3 667.3 45.8 666.8 45.5 666.1 45.2 665.5 44.9 664.8 44.8 664.1 44.8 663.4 44.8 662.7 44.9 662.1 45.2 661.5 45.5 660.9 45.8 660.5 46.3 660 46.8 659.7 47.3 659.4 47.9 659.1 48.5 659 49.1 659 49.9" fill="#0A171F"/><path d="M685.7 40.7 692.8 40.7C694.1 40.7 695.2 41 696.3 41.5 697.4 42 698.4 42.7 699.2 43.5 700 44.3 700.7 45.3 701.1 46.4 701.6 47.5 701.8 48.7 701.8 49.9 701.8 51.1 701.6 52.3 701.1 53.4 700.6 54.5 700 55.5 699.2 56.3 698.4 57.1 697.4 57.8 696.3 58.3 695.2 58.8 694 59.1 692.7 59.1L685.6 59.1 685.6 40.7ZM690.5 55 691.6 55C692.4 55 693.2 54.9 693.8 54.6 694.5 54.3 695 54 695.4 53.5 695.8 53 696.2 52.5 696.4 51.9 696.6 51.3 696.8 50.6 696.8 49.8 696.8 49.1 696.7 48.4 696.4 47.7 696.2 47.1 695.8 46.5 695.4 46.1 695 45.6 694.4 45.3 693.7 45 693 44.7 692.3 44.6 691.5 44.6L690.4 44.6 690.4 55Z" fill="#0A171F"/><path d="M715.4 44.7 709.7 44.7 709.7 47.8 715.1 47.8 715.1 51.9 709.7 51.9 709.7 55 715.4 55 715.4 59.1 704.9 59.1 704.9 40.7 715.4 40.7Z" fill="#0A171F"/><path d="M718.9 40.7 718.9 59.1 729.4 59.1 729.4 55 723.7 55 723.7 40.7Z" fill="#0A171F"/><path d="M481.3 74.1 475.6 74.1 475.6 77.1 480.9 77.1 480.9 81.2 475.6 81.2 475.6 84.4 481.3 84.4 481.3 88.4 470.8 88.4 470.8 70 481.3 70Z" fill="#0A171F"/><path d="M483.9 88.4 487 70 491.8 70 495.4 79.8 499.1 70 503.9 70 507 88.4 502.2 88.4 500.6 77.8 496.3 88.4 494.4 88.4 490.2 77.8 488.6 88.4Z" fill="#0A171F"/><path d="M514.8 88.4 510 88.4 510 70 517.6 70C519.7 70 521.3 70.5 522.4 71.6 523.5 72.7 524.1 74.2 524.1 76.1 524.1 78.1 523.6 79.6 522.4 80.6 521.3 81.7 519.7 82.2 517.6 82.2L514.8 82.2 514.8 88.4ZM514.8 78.5 516.4 78.5C518.2 78.5 519 77.7 519 76.2 519 74.7 518.1 73.9 516.4 73.9L514.8 73.9 514.8 78.5Z" fill="#0A171F"/><path d="M541.9 88.4 535.9 88.4 531.3 81.3 531.3 88.4 526.5 88.4 526.5 70 534 70C535 70 535.9 70.2 536.7 70.5 537.5 70.8 538.1 71.2 538.6 71.7 539.1 72.2 539.5 72.8 539.7 73.5 540 74.2 540.1 74.9 540.1 75.7 540.1 77.1 539.8 78.2 539.1 79.1 538.4 80 537.4 80.6 536.1 80.9L541.9 88.4ZM531.4 78.2 532.3 78.2C533.2 78.2 534 78 534.5 77.6 535 77.2 535.3 76.6 535.3 75.9 535.3 75.2 535 74.6 534.5 74.2 534 73.8 533.3 73.6 532.3 73.6L531.4 73.6 531.4 78.2Z" fill="#0A171F"/><path d="M554.4 74.1 548.7 74.1 548.7 77.1 554.1 77.1 554.1 81.2 548.7 81.2 548.7 84.4 554.4 84.4 554.4 88.4 543.9 88.4 543.9 70 554.4 70Z" fill="#0A171F"/><path d="M557.9 88.4 557.9 70 562.6 70 571.5 81.3 571.5 70 576.3 70 576.3 88.4 571.5 88.4 562.6 77.2 562.6 88.4Z" fill="#0A171F"/><path d="M580.1 70 587.2 70C588.5 70 589.6 70.3 590.7 70.8 591.8 71.3 592.8 72 593.6 72.8 594.4 73.6 595.1 74.6 595.5 75.7 596 76.8 596.2 78 596.2 79.2 596.2 80.4 596 81.6 595.5 82.7 595 83.8 594.4 84.8 593.6 85.6 592.8 86.4 591.8 87.1 590.7 87.6 589.6 88.1 588.4 88.4 587.1 88.4L580 88.4 580 70ZM584.9 84.4 586 84.4C586.8 84.4 587.6 84.3 588.2 84 588.9 83.7 589.4 83.4 589.8 82.9 590.2 82.4 590.6 81.9 590.8 81.3 591 80.7 591.2 80 591.2 79.2 591.2 78.5 591.1 77.8 590.8 77.1 590.6 76.5 590.2 75.9 589.8 75.5 589.4 75 588.8 74.7 588.1 74.4 587.4 74.1 586.7 74 585.9 74L584.8 74 584.8 84.4Z" fill="#0A171F"/><rect x="599.3" y="70" width="4.8" height="18.4" fill="#0A171F"/><path d="M607.2 88.4 610.3 70 615 70 618.7 79.8 622.4 70 627.1 70 630.3 88.4 625.5 88.4 623.9 77.8 619.6 88.4 617.7 88.4 613.5 77.8 611.9 88.4Z" fill="#0A171F"/><rect x="633.3" y="70" width="4.8" height="18.4" fill="#0A171F"/><path d="M652.4 74.1 646.7 74.1 646.7 77.1 652.1 77.1 652.1 81.2 646.7 81.2 646.7 84.4 652.4 84.4 652.4 88.4 642 88.4 642 70 652.4 70Z" fill="#0A171F"/><path d="M655.9 88.4 655.9 70 660.7 70 669.5 81.3 669.5 70 674.3 70 674.3 88.4 669.5 88.4 660.7 77.2 660.7 88.4Z" fill="#0A171F"/><path d="M685.1 74.1 685.1 88.4 680.4 88.4 680.4 74.1 676.4 74.1 676.4 70 689.1 70 689.1 74.1Z" fill="#0A171F"/><path d="M690.2 79.2C690.2 77.8 690.5 76.6 691 75.4 691.5 74.2 692.2 73.2 693.1 72.3 694 71.4 695.1 70.7 696.3 70.2 697.5 69.7 698.9 69.5 700.4 69.5 701.9 69.5 703.3 69.7 704.5 70.2 705.8 70.7 706.8 71.4 707.7 72.3 708.6 73.2 709.3 74.2 709.8 75.4 710.3 76.6 710.6 77.9 710.6 79.2 710.6 80.6 710.3 81.8 709.8 83 709.3 84.2 708.6 85.2 707.7 86.1 706.8 87 705.7 87.7 704.5 88.2 703.2 88.7 701.9 88.9 700.4 88.9 698.9 88.9 697.5 88.7 696.3 88.2 695.1 87.7 694 87 693.1 86.1 692.2 85.2 691.5 84.2 691 83 690.5 81.9 690.2 80.6 690.2 79.2M695.2 79.2C695.2 79.9 695.3 80.6 695.6 81.2 695.9 81.8 696.3 82.4 696.7 82.8 697.2 83.3 697.7 83.6 698.3 83.9 698.9 84.2 699.6 84.3 700.3 84.3 701 84.3 701.7 84.2 702.3 83.9 702.9 83.6 703.5 83.3 704 82.8 704.5 82.3 704.9 81.8 705.1 81.2 705.4 80.6 705.5 79.9 705.5 79.2 705.5 78.5 705.4 77.8 705.1 77.2 704.8 76.6 704.4 76 704 75.6 703.5 75.1 703 74.8 702.3 74.5 701.7 74.2 701 74.1 700.3 74.1 699.6 74.1 698.9 74.2 698.3 74.5 697.7 74.8 697.1 75.1 696.7 75.6 696.2 76.1 695.9 76.6 695.6 77.2 695.4 77.8 695.2 78.5 695.2 79.2" fill="#0A171F"/><path d="M470.8 99.3 477.9 99.3C479.2 99.3 480.3 99.6 481.4 100.1 482.5 100.6 483.5 101.3 484.3 102.1 485.1 102.9 485.8 103.9 486.2 105 486.7 106.1 486.9 107.3 486.9 108.5 486.9 109.7 486.7 110.9 486.2 112 485.7 113.1 485.1 114.1 484.3 114.9 483.5 115.7 482.5 116.4 481.4 116.9 480.3 117.4 479.1 117.7 477.8 117.7L470.7 117.7 470.7 99.3ZM475.6 113.7 476.7 113.7C477.5 113.7 478.3 113.6 478.9 113.3 479.6 113 480.1 112.7 480.5 112.2 480.9 111.7 481.3 111.2 481.5 110.6 481.7 110 481.9 109.3 481.9 108.5 481.9 107.8 481.8 107.1 481.5 106.4 481.3 105.8 480.9 105.2 480.5 104.8 480.1 104.3 479.5 104 478.8 103.7 478.1 103.4 477.4 103.3 476.6 103.3L475.5 103.3 475.5 113.7Z" fill="#0A171F"/><path d="M490 99.3 490 117.8 500.5 117.8 500.5 113.7 494.8 113.7 494.8 110.5 500.2 110.5 500.2 106.5 494.8 106.5 494.8 103.4 500.5 103.4 500.5 99.3Z" fill="#0A171F"/><path d="M512.2 99.3 512.2 117.8 522.7 117.8 522.7 113.7 517 113.7 517 110.5 522.4 110.5 522.4 106.5 517 106.5 517 103.4 522.7 103.4 522.7 99.3Z" fill="#0A171F"/><path d="M536.3 104C535.8 103.6 535.3 103.3 534.7 103.1 534.2 102.9 533.7 102.8 533.2 102.8 532.6 102.8 532.1 102.9 531.7 103.2 531.3 103.5 531.1 103.9 531.1 104.3 531.1 104.6 531.2 104.9 531.4 105.1 531.6 105.3 531.9 105.5 532.2 105.6 532.5 105.7 532.9 105.9 533.3 106 533.7 106.1 534.1 106.2 534.5 106.4 536.1 106.9 537.2 107.6 537.9 108.5 538.6 109.4 539 110.5 539 111.9 539 112.8 538.8 113.7 538.5 114.5 538.2 115.3 537.7 115.9 537.1 116.5 536.5 117 535.7 117.5 534.9 117.8 534 118.1 533 118.3 531.9 118.3 529.6 118.3 527.4 117.6 525.4 116.2L527.5 112.3C528.2 112.9 528.9 113.4 529.6 113.7 530.3 114 531 114.2 531.7 114.2 532.5 114.2 533.1 114 533.4 113.7 533.8 113.3 534 112.9 534 112.5 534 112.2 534 112 533.9 111.8 533.8 111.6 533.6 111.4 533.4 111.2 533.2 111 532.9 110.9 532.5 110.7 532.1 110.6 531.7 110.4 531.2 110.2 530.6 110 530 109.8 529.4 109.6 528.8 109.4 528.3 109.1 527.8 108.7 527.3 108.3 527 107.8 526.7 107.2 526.4 106.6 526.3 105.9 526.3 104.9 526.3 104 526.5 103.2 526.8 102.4 527.1 101.7 527.5 101 528.1 100.5 528.6 100 529.3 99.6 530.1 99.3 530.9 99 531.8 98.9 532.8 98.9 533.7 98.9 534.7 99 535.7 99.3 536.7 99.6 537.6 99.9 538.6 100.4L536.3 104Z" fill="#0A171F"/><path d="M546.8 117.8 542 117.8 542 99.3 549.6 99.3C551.7 99.3 553.3 99.8 554.4 100.9 555.5 102 556 103.5 556 105.4 556 107.4 555.5 108.9 554.4 109.9 553.3 111 551.7 111.5 549.6 111.5L546.8 111.5 546.8 117.8ZM546.8 107.8 548.4 107.8C550.2 107.8 551 107 551 105.5 551 104 550.1 103.2 548.4 103.2L546.8 103.2 546.8 107.8Z" fill="#0A171F"/><path d="M562.8 99.3 555.8 117.7 560.9 117.7 562 114.5 568.8 114.5 569.9 117.7 575 117.7 568 99.3 562.8 99.3ZM565.4 104.8 567.6 110.9 563.3 110.9 565.4 104.8Z" fill="#0A171F"/><path d="M577.1 117.8 577.1 99.3 581.9 99.3 590.7 110.6 590.7 99.3 595.5 99.3 595.5 117.7 590.7 117.7 581.9 106.4 581.9 117.7 577.1 117.7ZM581.1 97.4C581.1 96.2 581.4 95.2 581.9 94.5 582.5 93.8 583.2 93.4 584 93.4 584.3 93.4 584.7 93.5 585.1 93.6 585.5 93.7 585.9 93.8 586.4 93.9 586.8 94 587.2 94.1 587.5 94.2 587.8 94.3 588.1 94.3 588.3 94.3 588.8 94.3 589.2 94 589.4 93.3L591.8 93.3C591.6 94.8 591.3 95.8 590.7 96.4 590.2 97 589.4 97.3 588.5 97.3 588 97.3 587.6 97.2 587.2 97.1 586.8 97 586.3 96.9 586 96.8 585.6 96.7 585.3 96.6 584.9 96.5 584.6 96.4 584.3 96.3 584.1 96.3 583.9 96.3 583.8 96.4 583.6 96.5 583.5 96.6 583.3 96.9 583.2 97.3L581.1 97.3Z" fill="#0A171F"/><path d="M604.6 99.3 597.6 117.7 602.7 117.7 603.8 114.5 610.6 114.5 611.7 117.7 616.8 117.7 609.8 99.3 604.6 99.3ZM607.3 104.8 609.5 110.9 605.2 110.9 607.3 104.8Z" fill="#0A171F"/><path d="M366.8 79.6 366.8 79.6C366.7 79.1 366.6 78.6 366.6 78.3L366.6 60.4C366.6 50.7 374.8 45.5 375.1 45.3L385.2 39.1C388.1 37.4 389.4 37.3 389.7 37.3L389.7 37.3C390.3 38.1 390.9 40.6 391 42.4L391 58.6C391 64.9 385.7 68.3 385.5 68.4L367.9 79C367.5 79.2 367.2 79.5 366.8 79.6M389.1 74.2 389.1 74.2C390 73.6 397.9 68.4 397.9 58.5L397.9 42.3C397.9 42 397.8 33.8 393.1 31.2 390.3 29.7 386.5 30.3 381.7 33.2L371.6 39.4C371.1 39.7 359.8 46.9 359.8 60.4L359.8 78.3C359.8 78.6 359.9 84.5 363.3 86.4 364 86.8 364.8 87 365.7 87 367.4 87 369.3 86.3 371.6 84.9L389.1 74.2Z" fill="#0A171F"/><path d="M410.7 43.2C410.8 41.5 411.7 40 413.2 39.1 414.7 38.3 416.5 38.3 418 39.1 418.1 39.2 423.5 42.5 432.5 48.1 434.1 49.1 435 50.8 435 52.6L435 61 410.7 46.1C410.7 45 410.7 43.3 410.7 43.2M416.3 67.8C416.1 67.7 410.7 64.2 410.7 57.9L410.7 54.2 442 73.4 442 51.6C442 48.2 440.2 45 437.3 43.2L419.7 32.5C418.3 31.7 417.1 31.1 415.8 30.8 413.2 30.1 410.9 30.3 409.1 31.3 403.9 34.3 403.8 43.2 403.8 43.5L403.8 58C403.8 67.9 411.7 73.2 412.7 73.7L435.1 87.3C435.8 87.7 436.6 88 437.5 88 438.3 88 439 87.8 439.7 87.4 441.1 86.6 441.9 85.2 442 83.7L442 83.4 416.3 67.8Z" fill="#0A171F"/><path d="M424.7 97.2 424.7 97.2 415.8 102.1 390.7 88.5 393.9 86.6C399.3 83.5 405 86.4 405.2 86.5L424.7 97.2ZM431.5 93.1 408.5 80.5C407.8 80.1 404.2 78.3 399.4 78.3 396.2 78.3 393.2 79.1 390.5 80.7L378 88C377.7 88.2 370 92.8 370.1 98.7 370.1 100.8 371.1 102.8 373 104.7 373.9 105.6 375 106.4 376.4 107.2L394.5 117.1C395.9 117.9 397.6 118.3 399.2 118.3 400.9 118.3 402.6 117.9 404.1 117L406.3 115.7C406.3 115.7 381.5 102.6 381.4 102.5 379.9 101.7 379 100.1 379 98.4 379 96.7 379.8 95.1 381.2 94.2 381.3 94.1 383.3 93 383.8 92.7L416 110.2 431.9 101C433.2 100.1 434 98.7 433.9 97.1 433.8 95.3 432.9 93.9 431.5 93.1" fill="#0A171F"/><g><g><linearGradient x1="519.697" y1="223.211" x2="663.118" y2="79.7904" gradientUnits="userSpaceOnUse" id="SVGID_1_"><stop offset="0" stop-color="#01CB99"/><stop offset="0.00959091" stop-color="#01CB99"/><stop offset="0.1509" stop-color="#01C09E"/><stop offset="0.3985" stop-color="#02A3AC"/><stop offset="0.7208" stop-color="#0374C2"/><stop offset="1" stop-color="#0446D8"/></linearGradient><path d="M556.8 148.5C556.2 148.3 555.1 148.1 553.8 149.1 552.4 150.2 551 152.2 549.8 154.3L549.8 147.8 546.3 147.8 546.3 162.2 549.7 162.8C550.6 160.6 553.2 154.6 555.7 152.2 556.2 153.2 556.6 155.2 556.9 156.6 557.5 159.4 558.2 162 559.4 163.5L562.1 161.2C561.4 160.4 560.8 157.8 560.3 155.8 559.6 152.1 558.9 149.2 556.8 148.5ZM466.7 148.1 460.7 149.2 460.9 143.1 457.4 143 457.2 149.8 450.5 151 451.1 154.5 457.1 153.4 456.9 159.5 460.4 159.6 460.6 152.8 467.3 151.6 466.7 148.1ZM494.8 146.2 494.7 139.6C495.9 139.8 497.5 139.9 499.7 139.9 505.3 139.9 509.5 137.1 509.7 137L507.7 134.1C507.7 134.1 504.2 136.4 499.7 136.4 495.2 136.4 493.5 135.8 493.5 135.8L491 134.8 491.3 152.9 494.1 150.8C494.2 150.7 504.1 143.5 509.6 148.5 511.7 150.3 512.7 153.7 512.3 156.9 511.8 160.2 509.8 162.8 506.6 164.3 500.6 167.1 495.6 161.6 495.4 161.4L492.7 163.7C494.5 165.7 498.4 168.6 503.1 168.6 504.7 168.6 506.3 168.3 508 167.5 512.3 165.5 515 161.9 515.7 157.4 516.3 153 514.8 148.5 511.9 145.8 506.5 140.9 498.8 144 494.8 146.2ZM574.3 146.6C573.7 146.3 573 146.2 572.3 146.2 571.1 146.2 569.8 146.6 568.7 147.4 567 148.5 565.7 150.2 564.8 152.3 562.9 156.9 564.2 161.6 567.7 163 568.3 163.3 569 163.4 569.7 163.4 570.9 163.4 572.2 163 573.3 162.2 575 161.1 576.3 159.4 577.2 157.3 579.1 152.7 577.8 148 574.3 146.6ZM573.9 155.9C573.3 157.3 572.4 158.5 571.4 159.2 571 159.4 570.4 159.8 569.7 159.8 569.5 159.8 569.3 159.8 569 159.7 567.6 159.1 566.9 156.5 568.1 153.6 568.7 152.2 569.6 151 570.6 150.3 571 150.1 571.6 149.7 572.3 149.7 572.5 149.7 572.7 149.7 573 149.8 574.4 150.4 575.1 153 573.9 155.9ZM482.8 153.4C486.1 149.6 487.3 145 485.9 141.4 484.9 138.8 482.7 137.1 479.9 136.7 479.5 136.6 479.1 136.6 478.7 136.6 472.2 136.6 468.9 143.7 468.8 144L472 145.5C472 145.4 474.8 139.6 479.5 140.2 481.1 140.4 482.2 141.2 482.7 142.6 483.6 144.9 482.6 148.2 480.2 151 475.4 156.5 467.3 159.2 467.2 159.3L467.8 162.8 491.4 162.8 491.4 159.3 475.7 159.3C478.1 157.8 480.7 155.9 482.8 153.4ZM551.3 141.1C551.5 141.4 551.6 142 551.7 142.4 552.1 143.8 552.8 146.5 555.8 146.5 559.1 146.5 561 144.2 561.7 142.8L558.5 141.3C558.5 141.3 557.6 143 555.7 143 555.5 142.8 555.3 142 555.1 141.5 554.7 140.1 554.1 138 551.9 137.6 551.7 137.6 551.5 137.5 551.3 137.5 548.1 137.5 546.1 142.3 545.5 143.8L548.8 145C549.5 143.3 550.7 141.5 551.3 141.1ZM541.3 152.4C541.2 149.6 539.9 147.2 537.6 146.2 537 145.9 536.3 145.8 535.6 145.8 534.4 145.8 533.1 146.2 532 147 530.3 148.1 529 149.8 528.1 151.9 526.2 156.5 527.5 161.2 531 162.6 531.6 162.9 532.3 163 533 163 534.2 163 535.5 162.6 536.6 161.8 537.5 161.2 538.3 160.4 539 159.5L539.8 163.6 543.3 162.9 541.3 152.4 541.3 152.4ZM537.2 155.5C536.6 156.9 535.7 158.1 534.7 158.8 534.3 159 533.7 159.4 533 159.4 532.8 159.4 532.6 159.4 532.3 159.3 530.9 158.7 530.2 156.1 531.4 153.2 532 151.8 532.9 150.6 533.9 149.9 534.3 149.7 534.9 149.3 535.6 149.3 535.8 149.3 536 149.3 536.3 149.4 537.7 150 538.4 152.7 537.2 155.5ZM708.6 146.6C708 146.3 707.3 146.2 706.6 146.2 705.4 146.2 704.1 146.6 703 147.4 701.3 148.5 700 150.2 699.1 152.3 697.2 156.9 698.5 161.6 702 163 702.6 163.3 703.3 163.4 704 163.4 705.2 163.4 706.5 163 707.6 162.2 709.3 161.1 710.6 159.4 711.5 157.3 713.3 152.7 712.1 148 708.6 146.6ZM708.2 155.9C707.6 157.3 706.7 158.5 705.7 159.2 705.3 159.4 704.7 159.8 704 159.8 703.8 159.8 703.6 159.8 703.3 159.7 701.9 159.1 701.2 156.5 702.4 153.6 703 152.2 703.9 151 704.9 150.3 705.3 150.1 705.9 149.7 706.6 149.7 706.8 149.7 707 149.7 707.3 149.8 708.6 150.4 709.4 153 708.2 155.9ZM685.6 150.7C685.1 148.6 683.8 146.9 682.1 146.2 681.5 145.9 680.8 145.8 680.1 145.8 678.9 145.8 677.6 146.2 676.5 147 674.8 148.1 673.5 149.8 672.6 151.9 671.8 154 671.5 156.2 672 158.1 672.5 160.2 673.8 161.9 675.5 162.6 676.1 162.9 676.8 163 677.5 163 678.7 163 680 162.6 681.1 161.8 682 161.2 682.8 160.4 683.5 159.5L684.3 163.6 687.8 162.9 685.8 152.4C685.8 151.8 685.7 151.2 685.6 150.7ZM681.7 155.5C681.1 156.9 680.2 158.1 679.2 158.8 678.8 159 678.2 159.4 677.5 159.4 677.3 159.4 677.1 159.4 676.8 159.3 675.9 158.9 675.6 157.9 675.4 157.3 675.1 156.1 675.3 154.6 675.9 153.2 676.5 151.8 677.4 150.6 678.4 149.9 678.8 149.7 679.4 149.3 680.1 149.3 680.3 149.3 680.5 149.3 680.8 149.4 681.7 149.8 682 150.8 682.2 151.4 682.4 152.7 682.3 154.2 681.7 155.5ZM701.9 144.5 701.3 141 693.7 142.4 693 133.5 689.5 133.8 690.3 143 685.2 143.9 685.8 147.4 690.6 146.5 692 163.4 695.5 163.1 694 146 701.9 144.5ZM729.2 153.3C728.3 151.5 725.6 151.3 720.1 152.6 719.3 152.8 718.7 152.9 718.2 153 719.2 152 720.8 150.7 722.3 149.8 725.4 148 728.4 147.3 728.4 147.3L727.7 144.4C727.6 144.4 724.3 145.2 720.8 147.2 720.7 147.2 713.2 151.5 714.5 154.7 715.3 156.6 718 156.3 720.8 155.6 724 154.8 725.5 154.8 726.1 154.8 725.8 155.2 725.3 155.8 724.4 156.6 720.9 159.5 718.6 161.1 718.6 161.1L720.3 163.6C720.4 163.5 722.8 162 726.4 158.9 729 156.7 729.9 154.9 729.2 153.3ZM668.3 151.9 666.8 133.5 663.3 133.8 664.3 146.2C662.6 145.7 660.7 146 659 147.1 657.3 148.2 656 149.9 655.1 152 653.2 156.6 654.5 161.3 658 162.7 658.6 163 659.3 163.1 660 163.1 661.2 163.1 662.5 162.7 663.6 161.9 664.3 161.5 664.9 160.9 665.4 160.3L665.7 163.5 669.2 163.2 668.3 152.1C668.3 152 668.3 152 668.3 151.9ZM664.2 155.7C663.6 157.1 662.7 158.3 661.7 159 661.3 159.2 660.7 159.6 660 159.6 659.8 159.6 659.6 159.6 659.3 159.5 657.9 158.9 657.2 156.3 658.4 153.4 659 152 659.9 150.8 660.9 150.1 661.4 149.8 662.4 149.3 663.3 149.6 664.6 150.2 665.3 152.8 664.2 155.7ZM585.5 152.7C584.7 152.9 584.1 153 583.6 153.1 584.6 152.1 586.2 150.8 587.7 149.9 590.8 148.1 593.8 147.4 593.8 147.4L593.1 144.5C593 144.5 589.7 145.3 586.2 147.3 586.1 147.3 578.6 151.6 579.9 154.8 580.7 156.7 583.4 156.4 586.2 155.7 589.4 154.9 590.9 154.9 591.5 154.9 591.2 155.3 590.7 155.9 589.8 156.7 586.3 159.6 584 161.2 584 161.2L585.7 163.7C585.8 163.6 588.2 162.1 591.8 159 594.4 156.8 595.3 155 594.5 153.4 593.6 151.5 590.9 151.3 585.5 152.7ZM622.7 151.9 621.2 133.5 617.7 133.8 618.7 146.2C615.3 145.1 611.3 147.6 609.5 152 607.6 156.6 608.9 161.3 612.4 162.7 613 163 613.7 163.1 614.4 163.1 615.6 163.1 616.9 162.7 618 161.9 618.7 161.5 619.3 160.9 619.8 160.3L620.1 163.5 623.6 163.2 622.7 152.1C622.7 152 622.7 152 622.7 151.9ZM618.6 155.7C618 157.1 617.1 158.3 616.1 159 615.7 159.2 615.1 159.6 614.4 159.6 614.2 159.6 614 159.6 613.7 159.5 612.3 158.9 611.6 156.3 612.8 153.4 614 150.5 616.3 149.1 617.7 149.7 619 150.2 619.7 152.8 618.6 155.7ZM630 160.2C629.6 159.6 629.5 158 629.6 156.1 631.4 155 637.4 151.3 639.2 150.2 640.1 149.6 640.6 148.6 640.4 147.6 640.1 145.6 637.9 144 635.8 143.5 635.2 143.3 634.6 143.2 634 143.2 632.2 143.2 630.6 144 629.5 145.4 626.6 149 624.8 158.4 627 162 627.7 163.1 628.7 163.7 629.9 163.7 630.1 163.7 630.4 163.7 630.7 163.6 635.1 162.7 643.7 155.6 644.7 154.8L642.4 152.1C639.1 154.9 632.8 159.5 630 160.2ZM632.3 147.6C632.8 147 633.4 146.7 634.1 146.7 634.2 146.7 634.4 146.7 634.5 146.7 635.4 146.8 636.1 147.3 636.6 147.6 635.1 148.5 632.6 150.1 630.6 151.3 630.9 149.9 631.5 148.5 632.3 147.6Z" fill="url(#SVGID_1_)"/></g></g></g><g><g><path d="M90.2 111.9C92.2 113.1 95.3 113.7 98.7 113.7 102.5 113.7 105.1 112.7 108.7 109.6L111.4 112.9C111.8 113.6 112.2 113.9 112.7 113.9 113.4 113.9 113.8 113.1 113.8 112.5L113.8 94.8 115.7 94.8C116.5 94.8 117 94.4 117 93.8 117 93.2 116.3 92.8 115.7 92.8L99.5 92.8C98.8 92.8 98.2 93.2 98.2 93.8 98.2 94.3 98.6 94.8 99.5 94.8L101.8 94.8 101.8 109.6C101.8 111 100.6 111.8 98.6 111.8 97 111.8 95.7 111.1 95.7 110.5L95.7 74.8C95.7 73.6 96 72.1 99 72.1 100.1 72.1 101.8 72.5 102.7 73.1 105.5 74.6 108.2 80.8 109.2 87.7L109.3 87.9C109.5 88.4 109.9 88.6 110.6 88.6 111.3 88.6 111.8 88.2 111.8 87.6L111.8 71.3C111.8 70.7 111.4 70.3 110.8 70.3 110.4 70.3 109.9 70.5 109.6 70.8L106.3 73.1C103.6 71.1 101.3 70.3 98.4 70.3 85.9 70.3 82.6 81 82.6 87.3L82.6 97.6C82.5 103.9 85.5 109.5 90.2 111.9" fill="#3D80BF"/><path d="M119.2 111.2C118.5 111.2 118 111.6 118 112.2 118 112.8 118.5 113.2 119.2 113.2L151.6 113.2 151.6 95.5C151.6 95.3 151.5 94.6 150.3 94.6 149.5 94.6 149.1 95.1 149.1 95.5L149 97.3C148.8 100.2 145.9 111.2 136.3 111.2L135 111.2 135 92.6C135 92.5 135.2 92.5 135.5 92.5 138.7 92.5 141.6 95.9 141.6 99.7L141.6 101.7C141.6 101.9 141.7 102.6 142.9 102.6 143.7 102.6 144.1 102.1 144.1 101.7L144.1 81.2C144.1 80.7 143.7 80.2 142.9 80.2 142.3 80.2 141.6 80.6 141.6 81.2L141.6 83.3C141.6 87.5 139.2 90.1 135 90.4L135 72.4 137.8 72.4C140 72.4 141.2 72.6 142 73 145.3 74.7 148.8 80.8 149.2 85.8 149.3 86.8 149.4 87.4 150.5 87.4 151.3 87.4 151.8 87 151.8 86.5L151.8 70.4 119.4 70.4C118.7 70.4 118.2 70.9 118.2 71.4 118.2 72 118.7 72.4 119.4 72.4L122.3 72.4 122.3 111.2 119.2 111.2Z" fill="#3D80BF"/><path d="M157.7 113.3 168 113.3C168.6 113.3 169.1 112.9 169.1 112.3 169.1 111.4 168.4 111.3 167.1 111.2L166.9 111.2C165.3 111.1 163.6 110.4 163.6 109L163.6 80 169.9 108.7 170 109.6C170.1 110.4 170.2 110.9 170.3 111.2 170.3 111.3 170.4 111.4 170.4 111.5L170.4 111.6C170.6 112.6 170.8 113.5 172.1 113.5L175.6 113.5C176.6 113.5 176.8 113 177.3 110.8L185.6 78.9 185.6 111.5 182.5 111.5C181.8 111.5 181.2 112 181.2 112.5 181.2 113.1 181.9 113.5 182.5 113.5L200.5 113.5C201.7 113.5 201.8 112.8 201.8 112.5 201.8 111.9 201.2 111.5 200.5 111.5L197.7 111.5 197.7 72.5 200.8 72.5C201.7 72.5 202.1 72 202.1 71.5 202.1 71 201.7 70.5 200.8 70.5L185 70.5 178.8 93.7 173.9 70.5 158.2 70.5C157.5 70.5 156.9 71 156.9 71.5 156.9 72.1 157.6 72.5 158.2 72.5L160.9 72.5 160.9 109C160.9 110 160.4 110.8 157.7 111.4 156.7 111.6 156.6 112 156.6 112.3 156.5 112.8 156.9 113.3 157.7 113.3" fill="#3D80BF"/><path d="M200.8 30.4 187 51.4 204.8 45C215.2 57.6 220.8 73 220.8 89.4 220.8 129.2 186.9 161.5 145.2 161.5 126.1 161.5 108 154.7 94.1 142.6L102.8 126.8 79.4 138C96.2 158 120.1 168.6 145.1 168.6 190.8 168.6 228 133 228 89.2 228 67.4 218.2 45.7 200.8 30.4" fill="#3D80BF"/></g><rect x="294.3" y="39.9" width="4.6" height="119.1" fill="#0A171F"/></g></g></svg>